# File created by Blade
# Date/Time:  Thu Jan 15 17:55:17 2015
#---------------------------------------------------------
:version 1.10
:name HOM
:units
  mass 1.0
  length 1.000000
  angle deg
:documentation
     Acclaim Skeleton File
:root
   axis xyz
   order TX TY TZ RX RY RZ
   position 0.000000 0.000000 0.000000
   orientation 0 0 0
:bonedata
   begin
      id 1
      name Spine_dum
      direction 0.000000 1.000000 0.000000
      length 5.015652
      axis 0.0 0.0 0.0 xyz
   end
   begin
      id 2
      name LeftUpLeg_dum
      direction 1.000000 0.000000 0.000000
      length 4.275145
      axis 0.0 0.0 0.0 xyz
   end
   begin
      id 3
      name RightUpLeg_dum
      direction -1.000000 0.000000 0.000000
      length 4.275145
      axis 0.0 0.0 0.0 xyz
   end
   begin
      id 4
      name Spine
      direction 0.000000 1.000000 0.000000
      length 0.000000
      axis 0.0 0.0 0.0 xyz
      dof rx ry rz
   end
   begin
      id 5
      name Spine_dum1
      direction 0.000000 1.000000 0.000000
      length 15.980521
      axis 0.0 0.0 0.0 xyz
   end
   begin
      id 6
      name Spine_dum2
      direction 0.000000 1.000000 0.000000
      length 12.162712
      axis 0.0 0.0 0.0 xyz
   end
   begin
      id 7
      name Spine_dum3
      direction 0.000000 1.000000 0.000000
      length 12.162712
      axis 0.0 0.0 0.0 xyz
   end
   begin
      id 8
      name Head
      direction 0.000000 1.000000 0.000000
      length 4.527550
      axis 0.0 0.0 0.0 xyz
      dof rx ry rz
   end
   begin
      id 9
      name LeftShoulder
      direction 1.000000 0.000000 0.000000
      length 7.205867
      axis 0.0 0.0 -90.0 xyz
      dof rx ry rz
   end
   begin
      id 10
      name LeftArm
      direction 1.000000 0.000000 0.000000
      length 10.786708
      axis 0.0 0.0 -90.0 xyz
      dof rx ry rz
   end
   begin
      id 11
      name LeftForeArm
      direction 1.000000 0.000000 0.000000
      length 7.946034
      axis 0.0 0.0 -90.0 xyz
      dof rz ry rx
   end
   begin
      id 12
      name LeftHand
      direction 0.000000 0.000000 0.000000
      length 0.000000
      axis 0.0 0.0 -90.0 xyz
      dof rx ry rz
   end
   begin
      id 13
      name LeftHand_dum1
      direction 0.000000 0.000000 0.000000
      length 0.000000
      axis 0.0 0.0 -90.0 xyz
   end
   begin
      id 14
      name LeftHand_dum2
      direction 1.000000 0.000000 0.000000
      length 3.937000
      axis 0.0 0.0 -90.0 xyz
   end
   begin
      id 15
      name LeftHandThumb1
      direction 0.000000 0.000000 1.000000
      length 3.937000
      axis 0.0 0.0 -90.0 xyz
      dof rx ry rz
   end
   begin
      id 16
      name RightShoulder
      direction -1.000000 0.000000 0.000000
      length 7.205867
      axis 0.0 0.0 90.0 xyz
      dof rx ry rz
   end
   begin
      id 17
      name RightArm
      direction -1.000000 0.000000 0.000000
      length 10.786708
      axis 0.0 0.0 90.0 xyz
      dof rx ry rz
   end
   begin
      id 18
      name RightForeArm
      direction -1.000000 0.000000 0.000000
      length 7.946034
      axis 0.0 0.0 90.0 xyz
      dof rz ry rx
   end
   begin
      id 19
      name RightHand
      direction 0.000000 0.000000 0.000000
      length 0.000000
      axis 0.0 0.0 90.0 xyz
      dof rx ry rz
   end
   begin
      id 20
      name RightHand_dum1
      direction 0.000000 0.000000 0.000000
      length 0.000000
      axis 0.0 0.0 90.0 xyz
   end
   begin
      id 21
      name RightHand_dum2
      direction -1.000000 0.000000 0.000000
      length 3.937000
      axis 0.0 0.0 90.0 xyz
   end
   begin
      id 22
      name RightHandThumb1
      direction 0.000000 0.000000 1.000000
      length 3.937000
      axis 0.0 0.0 90.0 xyz
      dof rx ry rz
   end
   begin
      id 23
      name LeftUpLeg
      direction 0.000000 -1.000000 0.000000
      length 17.046659
      axis 0.0 0.0 0.0 xyz
      dof rx ry rz
   end
   begin
      id 24
      name LeftLeg
      direction 0.000000 -1.000000 0.000000
      length 17.458438
      axis 0.0 0.0 0.0 xyz
      dof rx ry rz
   end
   begin
      id 25
      name LeftFoot
      direction 0.000000 -0.258819 0.965926
      length 5.099406
      axis 15.0 0.0 0.0 xyz
      dof rx ry rz
   end
   begin
      id 26
      name LeftToeBase
      direction 0.000000 0.000000 1.000000
      length 2.952750
      axis 0.0 0.0 0.0 xyz
      dof rx ry rz
   end
   begin
      id 27
      name RightUpLeg
      direction 0.000000 -1.000000 0.000000
      length 17.046659
      axis 0.0 0.0 0.0 xyz
      dof rx ry rz
   end
   begin
      id 28
      name RightLeg
      direction 0.000000 -1.000000 0.000000
      length 17.458438
      axis 0.0 0.0 0.0 xyz
      dof rx ry rz
   end
   begin
      id 29
      name RightFoot
      direction 0.000000 -0.258819 0.965926
      length 5.099406
      axis 15.0 0.0 0.0 xyz
      dof rx ry rz
   end
   begin
      id 30
      name RightToeBase
      direction 0.000000 0.000000 1.000000
      length 2.952750
      axis 0.0 0.0 0.0 xyz
      dof rx ry rz
   end
:hierarchy
   begin
      root Spine_dum LeftUpLeg_dum RightUpLeg_dum
      Spine_dum Spine
      LeftUpLeg_dum LeftUpLeg
      RightUpLeg_dum RightUpLeg
      Spine Spine_dum1 Spine_dum2 Spine_dum3
      Spine_dum1 Head
      Spine_dum2 LeftShoulder
      Spine_dum3 RightShoulder
      LeftShoulder LeftArm
      LeftArm LeftForeArm
      LeftForeArm LeftHand
      LeftHand LeftHand_dum1 LeftHand_dum2
      LeftHand_dum1 LeftHandThumb1
      RightShoulder RightArm
      RightArm RightForeArm
      RightForeArm RightHand
      RightHand RightHand_dum1 RightHand_dum2
      RightHand_dum1 RightHandThumb1
      LeftUpLeg LeftLeg
      LeftLeg LeftFoot
      LeftFoot LeftToeBase
      RightUpLeg RightLeg
      RightLeg RightFoot
      RightFoot RightToeBase
   end

# File created by Blade
# Date/Time:  Thu Jan 15 17:55:09 2015
# Frame Rate: 120.000 fps
#------------------------------------------------------
:FULLY-SPECIFIED
:DEGREES
940
root 13.178380 34.923984 -12.988780 9.216312 0.299123 16.660492
Spine 4.172476 -9.073990 23.135022
Head -17.486745 18.752121 17.559361
LeftShoulder -33.297984 6.603906 25.427599
LeftArm -3.110246 -45.131461 -3.516284
LeftForeArm 0.000000 14.998736 0.786883
LeftHand 7.300403 -0.000000 24.375831
LeftHandThumb1 -26.253704 33.147579 0.000000
RightShoulder -4.313725 23.177542 -1.835828
RightArm 3.878309 55.828866 46.386583
RightForeArm 0.000000 -28.350069 15.064668
RightHand -1.846332 -0.000000 -30.744821
RightHandThumb1 -24.326973 -32.862282 -0.000000
LeftUpLeg -5.899714 -8.684991 -17.761339
LeftLeg -1.873819 -0.000000 0.000000
LeftFoot -18.633313 18.524451 -13.035536
LeftToeBase 24.371560 -0.000000 -0.000000
RightUpLeg -4.453916 -28.133930 -29.776898
RightLeg -6.871682 -0.000000 0.000000
RightFoot -12.404228 -24.431303 13.823578
RightToeBase 30.516554 -0.000000 -0.000000
941
root 13.121707 34.937260 -12.991117 9.163549 0.183474 16.466995
Spine 4.155336 -9.013246 22.825160
Head -17.376768 18.782972 17.338472
LeftShoulder -33.288001 6.592530 25.349095
LeftArm -2.985648 -45.150178 -3.845249
LeftForeArm -0.000000 15.091438 0.802491
LeftHand 7.248190 0.000000 24.132962
LeftHandThumb1 -26.253704 33.147579 0.000000
RightShoulder -4.179794 23.150792 -1.699790
RightArm 3.485993 56.054836 46.425824
RightForeArm 0.000000 -28.218215 15.047206
RightHand -2.283780 -0.000000 -30.772298
RightHandThumb1 -24.326973 -32.862282 -0.000000
LeftUpLeg -5.941418 -8.565064 -17.493481
LeftLeg -1.759336 -0.000000 0.000000
LeftFoot -18.762059 18.537667 -13.131223
LeftToeBase 24.343057 -0.000000 -0.000000
RightUpLeg -4.565256 -27.972604 -29.462100
RightLeg -6.744341 -0.000000 0.000000
RightFoot -12.630896 -24.303458 13.836258
RightToeBase 30.224805 -0.000000 -0.000000
942
root 13.060196 34.951383 -12.994498 9.130763 0.051026 16.241115
Spine 4.137522 -8.911221 22.524264
Head -17.320026 18.795478 17.087295
LeftShoulder -33.324523 6.590317 25.240981
LeftArm -2.707550 -45.195221 -4.265313
LeftForeArm -0.000000 15.140028 0.736600
LeftHand 7.284686 -0.000000 23.966558
LeftHandThumb1 -26.253704 33.147579 0.000000
RightShoulder -4.168429 23.043223 -1.622801
RightArm 3.266708 55.820216 46.508041
RightForeArm 0.000000 -27.741908 14.936855
RightHand -2.510440 0.000000 -31.061451
RightHandThumb1 -24.326973 -32.862282 -0.000000
LeftUpLeg -5.989071 -8.368412 -17.197493
LeftLeg -1.683028 -0.000000 0.000000
LeftFoot -18.871648 18.518537 -13.176327
LeftToeBase 24.377322 -0.000000 -0.000000
RightUpLeg -4.711514 -27.745469 -29.097281
RightLeg -6.608946 -0.000000 0.000000
RightFoot -12.880443 -24.261583 13.906315
RightToeBase 29.415559 -0.000000 -0.000000
943
root 12.995616 34.963868 -12.994778 9.093537 -0.046114 16.022620
Spine 4.092151 -8.869236 22.181690
Head -17.262963 18.754523 16.924262
LeftShoulder -33.305436 6.501037 25.232468
LeftArm -2.582673 -44.969424 -4.611392
LeftForeArm 0.000000 15.157823 0.710934
LeftHand 7.319438 -0.000000 23.897818
LeftHandThumb1 -26.253704 33.147579 0.000000
RightShoulder -4.075443 22.966309 -1.554626
RightArm 2.949524 56.088899 46.512512
RightForeArm 0.000000 -27.653729 14.897090
RightHand -2.922357 0.000000 -30.251769
RightHandThumb1 -24.326973 -32.862282 -0.000000
LeftUpLeg -6.025166 -8.170497 -16.906248
LeftLeg -1.593816 -0.000000 0.000000
LeftFoot -18.983386 18.471083 -13.211973
LeftToeBase 24.319149 -0.000000 -0.000000
RightUpLeg -4.849576 -27.615740 -28.741886
RightLeg -6.422552 -0.000000 0.000000
RightFoot -13.140041 -24.135369 13.907459
RightToeBase 28.650764 -0.000000 -0.000000
944
root 12.929654 34.978789 -12.992764 9.054034 -0.119435 15.795730
Spine 4.031159 -8.841507 21.864684
Head -17.229154 18.784292 16.687901
LeftShoulder -33.282008 6.483036 25.122229
LeftArm -2.423998 -44.986038 -4.955278
LeftForeArm -0.000000 15.319559 0.629716
LeftHand 7.393563 -0.000000 23.662635
LeftHandThumb1 -26.253704 33.147579 0.000000
RightShoulder -3.982639 22.878037 -1.530560
RightArm 2.516867 56.113052 46.344345
RightForeArm -0.000000 -27.493528 14.952869
RightHand -3.158372 -0.000000 -30.348949
RightHandThumb1 -24.326973 -32.862282 -0.000000
LeftUpLeg -6.063415 -7.949091 -16.613153
LeftLeg -1.487740 -0.000000 0.000000
LeftFoot -19.087595 18.374466 -13.326669
LeftToeBase 24.261078 -0.000000 -0.000000
RightUpLeg -4.927927 -27.441853 -28.388981
RightLeg -6.296916 -0.000000 0.000000
RightFoot -13.379655 -24.117253 13.988469
RightToeBase 27.723584 -0.000000 -0.000000
945
root 12.857959 34.993162 -12.989806 9.015982 -0.208139 15.577331
Spine 3.986464 -8.818228 21.478297
Head -17.252711 18.814287 16.510761
LeftShoulder -33.301714 6.437699 25.052730
LeftArm -2.251753 -44.957587 -5.314532
LeftForeArm -0.000000 15.474726 0.590342
LeftHand 7.321046 -0.000000 23.515517
LeftHandThumb1 -26.253704 33.147579 0.000000
RightShoulder -3.930602 22.822616 -1.514663
RightArm 2.141152 56.315446 46.180822
RightForeArm 0.000000 -27.540679 15.007152
RightHand -3.409503 0.000000 -29.103248
RightHandThumb1 -24.326973 -32.862282 -0.000000
LeftUpLeg -6.095811 -7.779892 -16.308169
LeftLeg -1.391057 -0.000000 0.000000
LeftFoot -19.183006 18.354106 -13.358047
LeftToeBase 24.213385 -0.000000 -0.000000
RightUpLeg -5.035953 -27.275568 -28.027813
RightLeg -6.143795 -0.000000 0.000000
RightFoot -13.615556 -24.063658 14.069319
RightToeBase 26.894831 -0.000000 -0.000000
